<svg xmlns="http://www.w3.org/2000/svg" xmlns:xlink="http://www.w3.org/1999/xlink" width="960" height="551" viewBox="0 0 960 551">
  <defs>
    <clipPath id="clip-path">
      <rect id="Rectangle_18813" data-name="Rectangle 18813" width="960" height="551" transform="translate(0 90)" fill="#2e334e"/>
    </clipPath>
    <clipPath id="clip-path-2">
      <rect id="Rectangle_18795" data-name="Rectangle 18795" width="744.055" height="359.266" fill="#7dd2d3"/>
    </clipPath>
  </defs>
  <g id="right_hero_tech_lines" data-name="right hero tech lines" transform="translate(0 -90)" clip-path="url(#clip-path)">
    <g id="Group_90116" data-name="Group 90116" transform="translate(301.051 -296.395)">
      <g id="Group_90115" data-name="Group 90115" transform="translate(-92.051)" style="mix-blend-mode: normal;isolation: isolate">
        <g id="Group_90106" data-name="Group 90106" transform="translate(0 728.699)">
          <g id="Group_90105" data-name="Group 90105" transform="translate(0 10.429)" opacity="0.15">
            <g id="Group_90104" data-name="Group 90104">
              <g id="Group_90103" data-name="Group 90103" clip-path="url(#clip-path-2)">
                <path id="Path_143069" data-name="Path 143069" d="M1306.111,435.649a4.017,4.017,0,1,0-4.017,4.017,4.017,4.017,0,0,0,4.017-4.017" transform="translate(-981.561 -268.688)" fill="#7dd2d3"/>
                <path id="Path_143070" data-name="Path 143070" d="M327.111,175.434a4.017,4.017,0,1,0-4.017,4.017,4.017,4.017,0,0,0,4.017-4.017" transform="translate(390.674 -112.993)" fill="#7dd2d3"/>
                <path id="Path_143071" data-name="Path 143071" d="M326.111,92.263a4.017,4.017,0,1,0-4.017,4.017,4.017,4.017,0,0,0,4.017-4.017" transform="translate(392.076 -63.23)" fill="#7dd2d3"/>
                <path id="Path_143072" data-name="Path 143072" d="M1276.268,33.256a4.017,4.017,0,1,0-4.016,4.017,4.017,4.017,0,0,0,4.016-4.017" transform="translate(-939.731 -27.924)" fill="#7dd2d3"/>
                <path id="Path_143073" data-name="Path 143073" d="M1744.111,242.149a4.017,4.017,0,1,0-4.017,4.017,4.017,4.017,0,0,0,4.017-4.017" transform="translate(-1595.492 -152.911)" fill="#7dd2d3"/>
                <path id="Path_143074" data-name="Path 143074" d="M1912.111,145.649a4.017,4.017,0,1,0-4.017,4.017,4.017,4.017,0,0,0,4.017-4.017" transform="translate(-1830.973 -95.172)" fill="#7dd2d3"/>
                <path id="Path_143075" data-name="Path 143075" d="M1481.111,83.262a4.017,4.017,0,1,0-4.017,4.017,4.017,4.017,0,0,0,4.017-4.017" transform="translate(-1226.853 -57.844)" fill="#7dd2d3"/>
                <path id="Path_143076" data-name="Path 143076" d="M846.111,423.149a4.017,4.017,0,1,0-4.017,4.017,4.017,4.017,0,0,0,4.017-4.017" transform="translate(-336.793 -261.209)" fill="#7dd2d3"/>
                <path id="Path_143077" data-name="Path 143077" d="M811.111,286.28a4.017,4.017,0,1,0-4.017,4.017,4.017,4.017,0,0,0,4.017-4.017" transform="translate(-287.734 -179.316)" fill="#7dd2d3"/>
                <path id="Path_143078" data-name="Path 143078" d="M821.111,738.418a4.017,4.017,0,1,0-4.017,4.017,4.017,4.017,0,0,0,4.017-4.017" transform="translate(-301.751 -449.844)" fill="#7dd2d3"/>
                <path id="Path_143079" data-name="Path 143079" d="M526.111,519.149a4.017,4.017,0,1,0-4.017,4.017,4.017,4.017,0,0,0,4.017-4.017" transform="translate(111.741 -318.648)" fill="#7dd2d3"/>
                <path id="Path_143080" data-name="Path 143080" d="M328.575,823.211a4.017,4.017,0,1,0-4.017,4.017,4.017,4.017,0,0,0,4.017-4.017" transform="translate(388.622 -500.578)" fill="#7dd2d3"/>
                <path id="Path_143081" data-name="Path 143081" d="M326.611,607.148a4.017,4.017,0,1,0-4.017,4.017,4.017,4.017,0,0,0,4.017-4.017" transform="translate(391.375 -371.301)" fill="#7dd2d3"/>
                <path id="Path_143082" data-name="Path 143082" d="M261.71,904.412a4.017,4.017,0,1,0-4.017,4.017,4.017,4.017,0,0,0,4.017-4.017" transform="translate(482.344 -549.163)" fill="#7dd2d3"/>
                <path id="Path_143083" data-name="Path 143083" d="M331.111,445.28a4.017,4.017,0,1,0-4.017,4.017,4.017,4.017,0,0,0,4.017-4.017" transform="translate(385.067 -274.45)" fill="#7dd2d3"/>
                <path id="Path_143084" data-name="Path 143084" d="M327.111,378.814a4.017,4.017,0,1,0-4.017,4.017,4.017,4.017,0,0,0,4.017-4.017" transform="translate(390.674 -234.682)" fill="#7dd2d3"/>
                <path id="Path_143085" data-name="Path 143085" d="M1022.925,898.4a4.418,4.418,0,1,0,4.419,4.418,4.424,4.424,0,0,0-4.419-4.418m0,8.033a3.615,3.615,0,1,1,3.615-3.615,3.619,3.619,0,0,1-3.615,3.615" transform="translate(-590.498 -547.966)" fill="#7dd2d3"/>
                <path id="Path_143086" data-name="Path 143086" d="M1383.5,532.131a4.418,4.418,0,1,0,4.418,4.418,4.424,4.424,0,0,0-4.418-4.418m0,8.033a3.615,3.615,0,1,1,3.615-3.615,3.619,3.619,0,0,1-3.615,3.615" transform="translate(-1095.9 -328.819)" fill="#7dd2d3"/>
                <path id="Path_143087" data-name="Path 143087" d="M1111.5,360.131a4.418,4.418,0,1,0,4.418,4.418,4.424,4.424,0,0,0-4.418-4.418m0,8.033a3.615,3.615,0,1,1,3.615-3.615,3.619,3.619,0,0,1-3.615,3.615" transform="translate(-714.645 -225.907)" fill="#7dd2d3"/>
                <path id="Path_143088" data-name="Path 143088" d="M442.96,440.263a4.418,4.418,0,1,0,4.418,4.418,4.424,4.424,0,0,0-4.418-4.418m0,8.033a3.615,3.615,0,1,1,3.615-3.615,3.619,3.619,0,0,1-3.615,3.615" transform="translate(222.421 -273.852)" fill="#7dd2d3"/>
                <path id="Path_143089" data-name="Path 143089" d="M313,514.132a4.418,4.418,0,1,0,4.418,4.418A4.424,4.424,0,0,0,313,514.132m0,8.033a3.615,3.615,0,1,1,3.615-3.615A3.619,3.619,0,0,1,313,522.165" transform="translate(404.588 -318.05)" fill="#7dd2d3"/>
                <path id="Path_143090" data-name="Path 143090" d="M1035.5,88.246a4.418,4.418,0,1,0,4.418,4.418,4.424,4.424,0,0,0-4.418-4.418m0,8.033a3.615,3.615,0,1,1,3.615-3.615,3.619,3.619,0,0,1-3.615,3.615" transform="translate(-608.118 -63.23)" fill="#7dd2d3"/>
                <path id="Path_143091" data-name="Path 143091" d="M1691.5,28.24a4.418,4.418,0,1,0,4.418,4.418,4.424,4.424,0,0,0-4.418-4.418m0,8.033a3.615,3.615,0,1,1,3.615-3.615,3.619,3.619,0,0,1-3.615,3.615" transform="translate(-1527.614 -27.326)" fill="#7dd2d3"/>
                <path id="Path_143092" data-name="Path 143092" d="M2088.5,25.965a4.418,4.418,0,1,0,4.418,4.418,4.424,4.424,0,0,0-4.418-4.418m0,8.033a3.615,3.615,0,1,1,3.615-3.615A3.619,3.619,0,0,1,2088.5,34" transform="translate(-2084.077 -25.965)" fill="#7dd2d3"/>
                <path id="Path_143093" data-name="Path 143093" d="M939.5,311.131a4.418,4.418,0,1,0,4.418,4.418,4.424,4.424,0,0,0-4.418-4.418m0,8.033a3.615,3.615,0,1,1,3.615-3.615,3.619,3.619,0,0,1-3.615,3.615" transform="translate(-473.558 -196.588)" fill="#7dd2d3"/>
                <path id="Path_143094" data-name="Path 143094" d="M567.5,200.263a4.418,4.418,0,1,0,4.418,4.418,4.423,4.423,0,0,0-4.418-4.418m0,8.033a3.615,3.615,0,1,1,3.615-3.615A3.619,3.619,0,0,1,567.5,208.3" transform="translate(47.863 -130.253)" fill="#7dd2d3"/>
                <path id="Path_143095" data-name="Path 143095" d="M312.5,290.211a4.418,4.418,0,1,0,4.418,4.418,4.424,4.424,0,0,0-4.418-4.418m0,8.033a3.615,3.615,0,1,1,3.615-3.615,3.619,3.619,0,0,1-3.615,3.615" transform="translate(405.289 -184.071)" fill="#7dd2d3"/>
                <path id="Path_143096" data-name="Path 143096" d="M312.5,238.131a4.418,4.418,0,1,0,4.418,4.418,4.424,4.424,0,0,0-4.418-4.418m0,8.033a3.615,3.615,0,1,1,3.615-3.615,3.619,3.619,0,0,1-3.615,3.615" transform="translate(405.289 -152.91)" fill="#7dd2d3"/>
                <path id="Path_143097" data-name="Path 143097" d="M529.3,38.24H329.078v.8H528.964l24.1,24.1H710.326v-.8H553.4Z" transform="translate(3.442 -33.309)" fill="#7dd2d3"/>
                <path id="Path_143098" data-name="Path 143098" d="M499.753,150.631H329.078v.8H499.421l44.786,44.786H733.726l33.339-33.339h198.66v-.8H766.732l-33.339,33.339H544.539Z" transform="translate(-251.956 -100.557)" fill="#7dd2d3"/>
                <path id="Path_143099" data-name="Path 143099" d="M641.979,249.131H530.55l-48.6,48.6H329.078v.8h153.2l48.6-48.6h111.1Z" transform="translate(71.789 -159.492)" fill="#7dd2d3"/>
                <path id="Path_143100" data-name="Path 143100" d="M918.458,37.685h-94.38v.8h94.047L974.94,95.3h196.181v-.8H975.273Z" transform="translate(-656.179 -32.977)" fill="#7dd2d3"/>
                <rect id="Rectangle_18792" data-name="Rectangle 18792" width="125.28" height="0.803" transform="translate(431.395 29.033)" fill="#7dd2d3"/>
                <path id="Path_143101" data-name="Path 143101" d="M537.545,299.131H447.806l-51.815,51.815H329.078v.8h67.245l51.815-51.815h89.406Z" transform="translate(176.224 -189.409)" fill="#7dd2d3"/>
                <path id="Path_143102" data-name="Path 143102" d="M722.313,383.131H647.034L590.4,439.767H471.436L438,406.328H329.078v.8H437.664L471.1,440.57H590.732l56.635-56.636h74.946Z" transform="translate(-8.544 -239.668)" fill="#7dd2d3"/>
                <path id="Path_143103" data-name="Path 143103" d="M1036.578,247.131h-80.5v.8h80.168l29.724,29.724H1273.4v-.8H1066.3Z" transform="translate(-811.476 -158.295)" fill="#7dd2d3"/>
                <path id="Path_143104" data-name="Path 143104" d="M458.18,542.131h-129.1v.8h128.77l27.715,27.715h265.67v-.8H485.9Z" transform="translate(-37.465 -334.803)" fill="#7dd2d3"/>
                <rect id="Rectangle_18793" data-name="Rectangle 18793" width="79.932" height="0.803" transform="translate(633.836 200.098)" fill="#7dd2d3"/>
                <path id="Path_143105" data-name="Path 143105" d="M549,861.263H321.95l-18.931,18.932H263.676v.8h39.675l18.932-18.931H548.667l17.863,17.863.568-.568Z" transform="translate(172.94 -525.749)" fill="#7dd2d3"/>
                <path id="Path_143106" data-name="Path 143106" d="M1587.164,35.965H1483.078v.8h103.754l21,21h117.052v-.8h-116.72Z" transform="translate(-1474.641 -31.949)" fill="#7dd2d3"/>
                <path id="Path_143107" data-name="Path 143107" d="M676.344,210.263H616.731l-32.653,32.653.568.568,32.418-32.418h59.281Z" transform="translate(-65.002 -136.236)" fill="#7dd2d3"/>
                <rect id="Rectangle_18794" data-name="Rectangle 18794" width="44.37" height="0.803" transform="translate(669.398 170.428)" fill="#7dd2d3"/>
                <path id="Path_143108" data-name="Path 143108" d="M416.289,743.4H329.078v.8h86.878l33.657,33.658H525.7v-.8H449.946Z" transform="translate(188.073 -455.228)" fill="#7dd2d3"/>
              </g>
            </g>
          </g>
          <path id="Path_143109" data-name="Path 143109" d="M1385.624,489.786a4.017,4.017,0,1,0-4.017,4.017,4.017,4.017,0,0,0,4.017-4.017" transform="translate(-1093.012 -290.65)" fill="#7dd2d3"/>
          <path id="Path_143110" data-name="Path 143110" d="M1197.111,409.683a4.017,4.017,0,1,0-4.017,4.017,4.017,4.017,0,0,0,4.017-4.017" transform="translate(-828.779 -242.722)" fill="#7dd2d3"/>
          <path id="Path_143111" data-name="Path 143111" d="M947.189,7.291a4.017,4.017,0,1,0-4.017,4.017,4.017,4.017,0,0,0,4.017-4.017" transform="translate(-478.471 -1.959)" fill="#7dd2d3"/>
          <path id="Path_143112" data-name="Path 143112" d="M849.444,96.613a4.017,4.017,0,1,0-4.017,4.017,4.017,4.017,0,0,0,4.017-4.017" transform="translate(-341.465 -55.403)" fill="#7dd2d3"/>
          <path id="Path_143113" data-name="Path 143113" d="M1635.111,216.183a4.017,4.017,0,1,0-4.017,4.017,4.017,4.017,0,0,0,4.017-4.017" transform="translate(-1442.71 -126.945)" fill="#7dd2d3"/>
          <path id="Path_143114" data-name="Path 143114" d="M1803.111,119.683a4.017,4.017,0,1,0-4.017,4.017,4.017,4.017,0,0,0,4.017-4.017" transform="translate(-1678.191 -69.206)" fill="#7dd2d3"/>
          <path id="Path_143115" data-name="Path 143115" d="M1372.111,57.3a4.017,4.017,0,1,0-4.017,4.017,4.017,4.017,0,0,0,4.017-4.017" transform="translate(-1074.071 -31.879)" fill="#7dd2d3"/>
          <path id="Path_143116" data-name="Path 143116" d="M737.111,397.183a4.017,4.017,0,1,0-4.017,4.017,4.017,4.017,0,0,0,4.017-4.017" transform="translate(-184.011 -235.243)" fill="#7dd2d3"/>
          <path id="Path_143117" data-name="Path 143117" d="M790.818,317.148a4.017,4.017,0,1,0-4.017,4.017,4.017,4.017,0,0,0,4.017-4.017" transform="translate(-259.29 -187.356)" fill="#7dd2d3"/>
          <path id="Path_143118" data-name="Path 143118" d="M272.846,692.363a4.017,4.017,0,1,0-4.017,4.017,4.016,4.016,0,0,0,4.017-4.017" transform="translate(466.736 -411.858)" fill="#7dd2d3"/>
          <path id="Path_143119" data-name="Path 143119" d="M707.611,696.522a4.017,4.017,0,1,0-4.017,4.017,4.017,4.017,0,0,0,4.017-4.017" transform="translate(-142.662 -414.346)" fill="#7dd2d3"/>
          <path id="Path_143120" data-name="Path 143120" d="M417.111,493.183a4.017,4.017,0,1,0-4.017,4.017,4.017,4.017,0,0,0,4.017-4.017" transform="translate(264.524 -292.683)" fill="#7dd2d3"/>
          <path id="Path_143121" data-name="Path 143121" d="M909.5,625.582A4.418,4.418,0,1,0,913.915,630a4.424,4.424,0,0,0-4.418-4.418m0,8.033A3.615,3.615,0,1,1,913.111,630a3.619,3.619,0,0,1-3.615,3.615" transform="translate(-431.508 -374.304)" fill="#7dd2d3"/>
          <path id="Path_143122" data-name="Path 143122" d="M1032.925,689.712a4.418,4.418,0,1,0,4.418,4.418,4.424,4.424,0,0,0-4.418-4.418m0,8.033a3.615,3.615,0,1,1,3.615-3.615,3.619,3.619,0,0,1-3.615,3.615" transform="translate(-604.515 -412.675)" fill="#7dd2d3"/>
          <path id="Path_143123" data-name="Path 143123" d="M1274.5,506.167a4.418,4.418,0,1,0,4.418,4.418,4.424,4.424,0,0,0-4.418-4.418m0,8.033a3.615,3.615,0,1,1,3.615-3.615,3.619,3.619,0,0,1-3.615,3.615" transform="translate(-943.118 -302.855)" fill="#7dd2d3"/>
          <path id="Path_143124" data-name="Path 143124" d="M1002.5,334.167a4.418,4.418,0,1,0,4.418,4.418,4.424,4.424,0,0,0-4.418-4.418m0,8.033a3.615,3.615,0,1,1,3.615-3.615,3.619,3.619,0,0,1-3.615,3.615" transform="translate(-561.863 -199.942)" fill="#7dd2d3"/>
          <path id="Path_143125" data-name="Path 143125" d="M333.96,414.3a4.418,4.418,0,1,0,4.418,4.418,4.424,4.424,0,0,0-4.418-4.418m0,8.033a3.615,3.615,0,1,1,3.615-3.615,3.619,3.619,0,0,1-3.615,3.615" transform="translate(375.203 -247.886)" fill="#7dd2d3"/>
          <path id="Path_143126" data-name="Path 143126" d="M706.418,62.28a4.418,4.418,0,1,0,4.418,4.418,4.424,4.424,0,0,0-4.418-4.418m0,8.033a3.615,3.615,0,1,1,3.615-3.615,3.619,3.619,0,0,1-3.615,3.615" transform="translate(-146.86 -37.264)" fill="#7dd2d3"/>
          <path id="Path_143127" data-name="Path 143127" d="M1146.966,24.706a4.418,4.418,0,1,0,4.418,4.418,4.424,4.424,0,0,0-4.418-4.418m0,8.033a3.615,3.615,0,1,1,3.615-3.615,3.619,3.619,0,0,1-3.615,3.615" transform="translate(-764.361 -14.782)" fill="#7dd2d3"/>
          <path id="Path_143128" data-name="Path 143128" d="M1582.5,2.274a4.418,4.418,0,1,0,4.418,4.418,4.424,4.424,0,0,0-4.418-4.418m0,8.033a3.615,3.615,0,1,1,3.615-3.615,3.619,3.619,0,0,1-3.615,3.615" transform="translate(-1374.832 -1.361)" fill="#7dd2d3"/>
          <path id="Path_143129" data-name="Path 143129" d="M1979.5,0a4.418,4.418,0,1,0,4.418,4.418A4.424,4.424,0,0,0,1979.5,0m0,8.033a3.615,3.615,0,1,1,3.615-3.615,3.619,3.619,0,0,1-3.615,3.615" transform="translate(-1931.295 0)" fill="#7dd2d3"/>
          <path id="Path_143130" data-name="Path 143130" d="M830.5,285.167a4.418,4.418,0,1,0,4.418,4.418,4.424,4.424,0,0,0-4.418-4.418m0,8.033a3.615,3.615,0,1,1,3.615-3.615A3.619,3.619,0,0,1,830.5,293.2" transform="translate(-320.776 -170.624)" fill="#7dd2d3"/>
          <path id="Path_143131" data-name="Path 143131" d="M547.5,229.91a4.418,4.418,0,1,0,4.418,4.418,4.423,4.423,0,0,0-4.418-4.418m0,8.033a3.615,3.615,0,1,1,3.615-3.615,3.619,3.619,0,0,1-3.615,3.615" transform="translate(75.897 -137.562)" fill="#7dd2d3"/>
          <path id="Path_143132" data-name="Path 143132" d="M200.218,12.274H0v.8H199.886l24.1,24.1H381.248v-.8H224.321Z" transform="translate(464.701 -7.344)" fill="#7dd2d3"/>
          <path id="Path_143133" data-name="Path 143133" d="M390.753,124.667H220.078v.8H390.421l44.786,44.786H624.726l33.339-33.339h198.66v-.8H657.732l-33.339,33.339H435.539Z" transform="translate(-99.174 -74.592)" fill="#7dd2d3"/>
          <path id="Path_143134" data-name="Path 143134" d="M532.979,223.167H421.55l-48.6,48.6H220.078v.8h153.2l48.6-48.6h111.1Z" transform="translate(224.572 -133.527)" fill="#7dd2d3"/>
          <path id="Path_143135" data-name="Path 143135" d="M809.458,11.72h-94.38v.8h94.047L865.94,69.338h196.181v-.8H866.273Z" transform="translate(-503.398 -7.013)" fill="#7dd2d3"/>
          <rect id="Rectangle_18796" data-name="Rectangle 18796" width="125.28" height="0.803" transform="translate(563.575 29.032)" fill="#7dd2d3"/>
          <path id="Path_143136" data-name="Path 143136" d="M428.545,273.167H338.806l-51.815,51.815H220.078v.8h67.245l51.815-51.815h89.406Z" transform="translate(329.006 -163.444)" fill="#7dd2d3"/>
          <path id="Path_143137" data-name="Path 143137" d="M613.313,357.166H538.034L481.4,413.8H362.435L329,380.363H220.078v.8H328.664L362.1,414.605H481.731l56.635-56.636h74.946Z" transform="translate(144.238 -213.703)" fill="#7dd2d3"/>
          <path id="Path_143138" data-name="Path 143138" d="M927.578,221.166h-80.5v.8h80.168l29.724,29.724H1164.4v-.8H957.3Z" transform="translate(-658.694 -132.331)" fill="#7dd2d3"/>
          <path id="Path_143139" data-name="Path 143139" d="M349.18,516.166h-129.1v.8h128.77l27.715,27.715h265.67v-.8H376.9Z" transform="translate(115.317 -308.838)" fill="#7dd2d3"/>
          <rect id="Rectangle_18797" data-name="Rectangle 18797" width="79.932" height="0.803" transform="translate(677.618 200.099)" fill="#7dd2d3"/>
          <path id="Path_143140" data-name="Path 143140" d="M559.428,652.581H332.379l-18.931,18.932H274.105v.8H313.78l18.931-18.931H559.1l17.863,17.863.568-.568Z" transform="translate(158.322 -390.458)" fill="#7dd2d3"/>
          <path id="Path_143141" data-name="Path 143141" d="M922.939,495.062l-.568.568,35.5,35.5h132.832l18.245,18.245.568-.568-18.48-18.48H958.208Z" transform="translate(-634.059 -296.21)" fill="#7dd2d3"/>
          <path id="Path_143142" data-name="Path 143142" d="M1478.164,10H1374.078v.8h103.754l21,21h117.052V31h-116.72Z" transform="translate(-1321.859 -5.983)" fill="#7dd2d3"/>
          <path id="Path_143143" data-name="Path 143143" d="M655.345,240.91H595.731l-32.653,32.653.568.568,32.418-32.418h59.281Z" transform="translate(-35.567 -144.143)" fill="#7dd2d3"/>
          <rect id="Rectangle_18798" data-name="Rectangle 18798" width="44.37" height="0.803" transform="translate(713.18 170.427)" fill="#7dd2d3"/>
          <path id="Path_143144" data-name="Path 143144" d="M307.289,701.5H220.078v.8h86.878l33.657,33.657H416.7v-.8H340.946Z" transform="translate(340.855 -419.731)" fill="#7dd2d3"/>
          <path id="Path_143145" data-name="Path 143145" d="M851.979,42.4l-.568.568,24.014,24.014h94.96v-.8H875.758Z" transform="translate(-466.423 -25.367)" fill="#7dd2d3"/>
        </g>
        <g id="Group_90110" data-name="Group 90110" transform="translate(315.783 246.152)">
          <g id="Group_90109" data-name="Group 90109" transform="translate(42.217)" opacity="0.15">
            <g id="Group_90108" data-name="Group 90108">
              <g id="Group_90107" data-name="Group 90107" clip-path="url(#clip-path-2)">
                <path id="Path_143146" data-name="Path 143146" d="M1306.111,435.649a4.017,4.017,0,1,1-4.017-4.017,4.017,4.017,0,0,1,4.017,4.017" transform="translate(-981.561 -243.344)" fill="#7dd2d3"/>
                <path id="Path_143147" data-name="Path 143147" d="M327.111,175.434a4.017,4.017,0,1,1-4.017-4.017,4.017,4.017,0,0,1,4.017,4.017" transform="translate(390.674 121.392)" fill="#7dd2d3"/>
                <path id="Path_143148" data-name="Path 143148" d="M326.111,92.263a4.017,4.017,0,1,1-4.017-4.017,4.017,4.017,0,0,1,4.017,4.017" transform="translate(392.076 237.97)" fill="#7dd2d3"/>
                <path id="Path_143149" data-name="Path 143149" d="M1276.268,33.256a4.017,4.017,0,1,1-4.016-4.017,4.017,4.017,0,0,1,4.016,4.017" transform="translate(-939.731 320.678)" fill="#7dd2d3"/>
                <path id="Path_143150" data-name="Path 143150" d="M1744.111,242.149a4.017,4.017,0,1,1-4.017-4.017,4.017,4.017,0,0,1,4.017,4.017" transform="translate(-1595.492 27.879)" fill="#7dd2d3"/>
                <path id="Path_143151" data-name="Path 143151" d="M1912.111,145.649a4.017,4.017,0,1,1-4.017-4.017,4.017,4.017,0,0,1,4.017,4.017" transform="translate(-1830.973 163.141)" fill="#7dd2d3"/>
                <path id="Path_143152" data-name="Path 143152" d="M1481.111,83.262a4.017,4.017,0,1,1-4.017-4.017,4.017,4.017,0,0,1,4.017,4.017" transform="translate(-1226.853 250.587)" fill="#7dd2d3"/>
                <path id="Path_143153" data-name="Path 143153" d="M846.111,423.149a4.017,4.017,0,1,1-4.017-4.017,4.017,4.017,0,0,1,4.017,4.017" transform="translate(-336.793 -225.823)" fill="#7dd2d3"/>
                <path id="Path_143154" data-name="Path 143154" d="M811.111,286.28a4.017,4.017,0,1,1-4.017-4.017,4.017,4.017,0,0,1,4.017,4.017" transform="translate(-287.734 -33.978)" fill="#7dd2d3"/>
                <path id="Path_143155" data-name="Path 143155" d="M821.111,738.418a4.017,4.017,0,1,1-4.017-4.017,4.017,4.017,0,0,1,4.017,4.017" transform="translate(-301.751 -667.726)" fill="#7dd2d3"/>
                <path id="Path_143156" data-name="Path 143156" d="M526.111,519.149a4.017,4.017,0,1,1-4.017-4.017,4.017,4.017,0,0,1,4.017,4.017" transform="translate(111.741 -360.383)" fill="#7dd2d3"/>
                <path id="Path_143157" data-name="Path 143157" d="M328.575,823.211a4.017,4.017,0,1,1-4.017-4.017,4.017,4.017,0,0,1,4.017,4.017" transform="translate(388.622 -786.578)" fill="#7dd2d3"/>
                <path id="Path_143158" data-name="Path 143158" d="M326.611,607.148a4.017,4.017,0,1,1-4.017-4.017,4.017,4.017,0,0,1,4.017,4.017" transform="translate(391.375 -483.729)" fill="#7dd2d3"/>
                <path id="Path_143159" data-name="Path 143159" d="M261.71,904.412a4.017,4.017,0,1,1-4.017-4.017,4.017,4.017,0,0,1,4.017,4.017" transform="translate(482.344 -900.395)" fill="#7dd2d3"/>
                <path id="Path_143160" data-name="Path 143160" d="M331.111,445.28a4.017,4.017,0,1,1-4.017-4.017,4.017,4.017,0,0,1,4.017,4.017" transform="translate(385.067 -256.843)" fill="#7dd2d3"/>
                <path id="Path_143161" data-name="Path 143161" d="M327.111,378.814a4.017,4.017,0,1,1-4.017-4.017,4.017,4.017,0,0,1,4.017,4.017" transform="translate(390.674 -163.68)" fill="#7dd2d3"/>
                <path id="Path_143162" data-name="Path 143162" d="M1022.925,907.232a4.418,4.418,0,1,1,4.419-4.418,4.424,4.424,0,0,1-4.419,4.418m0-8.033a3.615,3.615,0,1,0,3.615,3.615,3.619,3.619,0,0,0-3.615-3.615" transform="translate(-590.498 -898.395)" fill="#7dd2d3"/>
                <path id="Path_143163" data-name="Path 143163" d="M1383.5,540.968a4.418,4.418,0,1,1,4.418-4.418,4.424,4.424,0,0,1-4.418,4.418m0-8.033a3.615,3.615,0,1,0,3.615,3.615,3.619,3.619,0,0,0-3.615-3.615" transform="translate(-1095.9 -385.014)" fill="#7dd2d3"/>
                <path id="Path_143164" data-name="Path 143164" d="M1111.5,368.968a4.418,4.418,0,1,1,4.418-4.418,4.424,4.424,0,0,1-4.418,4.418m0-8.033a3.615,3.615,0,1,0,3.615,3.615,3.619,3.619,0,0,0-3.615-3.615" transform="translate(-714.645 -143.926)" fill="#7dd2d3"/>
                <path id="Path_143165" data-name="Path 143165" d="M442.96,449.1a4.418,4.418,0,1,1,4.418-4.418,4.424,4.424,0,0,1-4.418,4.418m0-8.033a3.615,3.615,0,1,0,3.615,3.615,3.619,3.619,0,0,0-3.615-3.615" transform="translate(222.421 -256.245)" fill="#7dd2d3"/>
                <path id="Path_143166" data-name="Path 143166" d="M313,522.969a4.418,4.418,0,1,1,4.418-4.418A4.424,4.424,0,0,1,313,522.969m0-8.033a3.615,3.615,0,1,0,3.615,3.615A3.619,3.619,0,0,0,313,514.935" transform="translate(404.588 -359.785)" fill="#7dd2d3"/>
                <path id="Path_143167" data-name="Path 143167" d="M1035.5,97.083a4.418,4.418,0,1,1,4.418-4.418,4.424,4.424,0,0,1-4.418,4.418m0-8.033a3.615,3.615,0,1,0,3.615,3.615,3.619,3.619,0,0,0-3.615-3.615" transform="translate(-608.118 237.167)" fill="#7dd2d3"/>
                <path id="Path_143168" data-name="Path 143168" d="M1691.5,37.077a4.418,4.418,0,1,1,4.418-4.418,4.424,4.424,0,0,1-4.418,4.418m0-8.033a3.615,3.615,0,1,0,3.615,3.615,3.619,3.619,0,0,0-3.615-3.615" transform="translate(-1527.614 321.275)" fill="#7dd2d3"/>
                <path id="Path_143169" data-name="Path 143169" d="M2088.5,34.8a4.418,4.418,0,1,1,4.418-4.418A4.424,4.424,0,0,1,2088.5,34.8m0-8.033a3.615,3.615,0,1,0,3.615,3.615,3.619,3.619,0,0,0-3.615-3.615" transform="translate(-2084.077 324.464)" fill="#7dd2d3"/>
                <path id="Path_143170" data-name="Path 143170" d="M939.5,319.968a4.418,4.418,0,1,1,4.418-4.418,4.424,4.424,0,0,1-4.418,4.418m0-8.033a3.615,3.615,0,1,0,3.615,3.615,3.619,3.619,0,0,0-3.615-3.615" transform="translate(-473.558 -75.244)" fill="#7dd2d3"/>
                <path id="Path_143171" data-name="Path 143171" d="M567.5,209.1a4.418,4.418,0,1,1,4.418-4.418A4.423,4.423,0,0,1,567.5,209.1m0-8.033a3.615,3.615,0,1,0,3.615,3.615,3.619,3.619,0,0,0-3.615-3.615" transform="translate(47.863 80.156)" fill="#7dd2d3"/>
                <path id="Path_143172" data-name="Path 143172" d="M312.5,299.048a4.418,4.418,0,1,1,4.418-4.418,4.424,4.424,0,0,1-4.418,4.418m0-8.033a3.615,3.615,0,1,0,3.615,3.615,3.619,3.619,0,0,0-3.615-3.615" transform="translate(405.289 -45.922)" fill="#7dd2d3"/>
                <path id="Path_143173" data-name="Path 143173" d="M312.5,246.968a4.418,4.418,0,1,1,4.418-4.418,4.424,4.424,0,0,1-4.418,4.418m0-8.033a3.615,3.615,0,1,0,3.615,3.615,3.619,3.619,0,0,0-3.615-3.615" transform="translate(405.289 27.077)" fill="#7dd2d3"/>
                <path id="Path_143174" data-name="Path 143174" d="M529.3,63.146H329.078v-.8H528.964l24.1-24.1H710.326v.8H553.4Z" transform="translate(3.442 291.19)" fill="#7dd2d3"/>
                <path id="Path_143175" data-name="Path 143175" d="M499.753,196.221H329.078v-.8H499.421l44.786-44.786H733.726l33.339,33.339h198.66v.8H766.732l-33.339-33.339H544.539Z" transform="translate(-251.956 112.97)" fill="#7dd2d3"/>
                <path id="Path_143176" data-name="Path 143176" d="M641.979,298.537H530.55l-48.6-48.6H329.078v-.8h153.2l48.6,48.6h111.1Z" transform="translate(71.789 -28.91)" fill="#7dd2d3"/>
                <path id="Path_143177" data-name="Path 143177" d="M918.458,95.3h-94.38v-.8h94.047L974.94,37.685h196.181v.8H975.273Z" transform="translate(-656.179 259.255)" fill="#7dd2d3"/>
                <rect id="Rectangle_18799" data-name="Rectangle 18799" width="125.28" height="0.803" transform="translate(431.395 329.429)" fill="#7dd2d3"/>
                <path id="Path_143178" data-name="Path 143178" d="M537.545,351.75H447.806l-51.815-51.815H329.078v-.8h67.245l51.815,51.815h89.406Z" transform="translate(176.224 -102.207)" fill="#7dd2d3"/>
                <path id="Path_143179" data-name="Path 143179" d="M722.313,440.57H647.034L590.4,383.935H471.436L438,417.374H329.078v-.8H437.664L471.1,383.131H590.732l56.635,56.636h74.946Z" transform="translate(-8.544 -224.767)" fill="#7dd2d3"/>
                <path id="Path_143180" data-name="Path 143180" d="M1036.578,277.658h-80.5v-.8h80.168l29.724-29.724H1273.4v.8H1066.3Z" transform="translate(-811.476 -7.228)" fill="#7dd2d3"/>
                <path id="Path_143181" data-name="Path 143181" d="M458.18,570.65h-129.1v-.8h128.77l27.715-27.715h265.67v.8H485.9Z" transform="translate(-37.465 -418.713)" fill="#7dd2d3"/>
                <rect id="Rectangle_18800" data-name="Rectangle 18800" width="79.932" height="0.803" transform="translate(633.836 158.364)" fill="#7dd2d3"/>
                <path id="Path_143182" data-name="Path 143182" d="M549,881H321.95l-18.931-18.932H263.676v-.8h39.675l18.932,18.931H548.667l17.863-17.863.568.568Z" transform="translate(172.94 -857.246)" fill="#7dd2d3"/>
                <path id="Path_143183" data-name="Path 143183" d="M1587.164,57.768H1483.078v-.8h103.754l21-21h117.052v.8h-116.72Z" transform="translate(-1474.641 297.481)" fill="#7dd2d3"/>
                <path id="Path_143184" data-name="Path 143184" d="M676.344,243.484H616.731l-32.653-32.653.568-.568,32.418,32.418h59.281Z" transform="translate(-65.002 41.755)" fill="#7dd2d3"/>
                <rect id="Rectangle_18801" data-name="Rectangle 18801" width="44.37" height="0.803" transform="translate(669.398 188.035)" fill="#7dd2d3"/>
                <path id="Path_143185" data-name="Path 143185" d="M416.289,777.862H329.078v-.8h86.878L449.614,743.4H525.7v.8H449.946Z" transform="translate(188.073 -706.768)" fill="#7dd2d3"/>
              </g>
            </g>
          </g>
          <path id="Path_143186" data-name="Path 143186" d="M1385.624,489.786a4.017,4.017,0,1,1-4.017-4.017,4.017,4.017,0,0,1,4.017,4.017" transform="translate(-1136.795 -278.226)" fill="#7dd2d3"/>
          <path id="Path_143187" data-name="Path 143187" d="M1197.111,409.683a4.017,4.017,0,1,1-4.017-4.017,4.017,4.017,0,0,1,4.017,4.017" transform="translate(-872.562 -165.948)" fill="#7dd2d3"/>
          <path id="Path_143188" data-name="Path 143188" d="M947.189,7.291a4.017,4.017,0,1,1-4.017-4.017,4.017,4.017,0,0,1,4.017,4.017" transform="translate(-661.433 436.073)" fill="#7dd2d3"/>
          <path id="Path_143189" data-name="Path 143189" d="M849.444,96.613a4.017,4.017,0,1,1-4.017-4.017,4.017,4.017,0,0,1,4.017,4.017" transform="translate(-385.248 272.873)" fill="#7dd2d3"/>
          <path id="Path_143190" data-name="Path 143190" d="M1635.111,216.183a4.017,4.017,0,1,1-4.017-4.017,4.017,4.017,0,0,1,4.017,4.017" transform="translate(-1486.493 105.275)" fill="#7dd2d3"/>
          <path id="Path_143191" data-name="Path 143191" d="M1803.111,119.683a4.017,4.017,0,1,1-4.017-4.017,4.017,4.017,0,0,1,4.017,4.017" transform="translate(-1721.974 240.536)" fill="#7dd2d3"/>
          <path id="Path_143192" data-name="Path 143192" d="M1372.111,57.3a4.017,4.017,0,1,1-4.017-4.017,4.017,4.017,0,0,1,4.017,4.017" transform="translate(-1117.854 327.981)" fill="#7dd2d3"/>
          <path id="Path_143193" data-name="Path 143193" d="M737.111,397.183a4.017,4.017,0,1,1-4.017-4.017,4.017,4.017,0,0,1,4.017,4.017" transform="translate(-227.794 -148.427)" fill="#7dd2d3"/>
          <path id="Path_143194" data-name="Path 143194" d="M790.818,317.148a4.017,4.017,0,1,1-4.017-4.017,4.017,4.017,0,0,1,4.017,4.017" transform="translate(-303.073 -36.244)" fill="#7dd2d3"/>
          <path id="Path_143195" data-name="Path 143195" d="M272.846,692.363a4.017,4.017,0,1,1-4.017-4.017,4.016,4.016,0,0,1,4.017,4.017" transform="translate(302.953 -562.172)" fill="#7dd2d3"/>
          <path id="Path_143196" data-name="Path 143196" d="M707.611,696.522a4.017,4.017,0,1,1-4.017-4.017,4.017,4.017,0,0,1,4.017,4.017" transform="translate(-306.445 -568.002)" fill="#7dd2d3"/>
          <path id="Path_143197" data-name="Path 143197" d="M417.111,493.183a4.017,4.017,0,1,1-4.017-4.017,4.017,4.017,0,0,1,4.017,4.017" transform="translate(220.741 -282.987)" fill="#7dd2d3"/>
          <path id="Path_143198" data-name="Path 143198" d="M909.5,634.419A4.418,4.418,0,1,1,913.915,630a4.424,4.424,0,0,1-4.418,4.418m0-8.033A3.615,3.615,0,1,0,913.111,630a3.619,3.619,0,0,0-3.615-3.615" transform="translate(-475.291 -475.001)" fill="#7dd2d3"/>
          <path id="Path_143199" data-name="Path 143199" d="M1032.925,698.549a4.418,4.418,0,1,1,4.418-4.418,4.424,4.424,0,0,1-4.418,4.418m0-8.033a3.615,3.615,0,1,0,3.615,3.615,3.619,3.619,0,0,0-3.615-3.615" transform="translate(-768.298 -564.89)" fill="#7dd2d3"/>
          <path id="Path_143200" data-name="Path 143200" d="M1274.5,515a4.418,4.418,0,1,1,4.418-4.418A4.423,4.423,0,0,1,1274.5,515m0-8.033a3.615,3.615,0,1,0,3.615,3.615,3.619,3.619,0,0,0-3.615-3.615" transform="translate(-986.901 -307.621)" fill="#7dd2d3"/>
          <path id="Path_143201" data-name="Path 143201" d="M1002.5,343a4.418,4.418,0,1,1,4.418-4.418A4.424,4.424,0,0,1,1002.5,343m0-8.033a3.615,3.615,0,1,0,3.615,3.615,3.619,3.619,0,0,0-3.615-3.615" transform="translate(-605.646 -66.533)" fill="#7dd2d3"/>
          <path id="Path_143202" data-name="Path 143202" d="M333.96,423.134a4.418,4.418,0,1,1,4.418-4.418,4.424,4.424,0,0,1-4.418,4.418m0-8.033a3.615,3.615,0,1,0,3.615,3.615,3.619,3.619,0,0,0-3.615-3.615" transform="translate(331.42 -178.849)" fill="#7dd2d3"/>
          <path id="Path_143203" data-name="Path 143203" d="M706.418,71.117a4.418,4.418,0,1,1,4.418-4.418,4.424,4.424,0,0,1-4.418,4.418m0-8.033a3.615,3.615,0,1,0,3.615,3.615,3.619,3.619,0,0,0-3.615-3.615" transform="translate(-190.643 314.563)" fill="#7dd2d3"/>
          <path id="Path_143204" data-name="Path 143204" d="M1146.966,33.543a4.418,4.418,0,1,1,4.418-4.418,4.424,4.424,0,0,1-4.418,4.418m0-8.033a3.615,3.615,0,1,0,3.615,3.615,3.619,3.619,0,0,0-3.615-3.615" transform="translate(-808.144 367.229)" fill="#7dd2d3"/>
          <path id="Path_143205" data-name="Path 143205" d="M1582.5,11.111a4.418,4.418,0,1,1,4.418-4.418,4.424,4.424,0,0,1-4.418,4.418m0-8.033a3.615,3.615,0,1,0,3.615,3.615,3.619,3.619,0,0,0-3.615-3.615" transform="translate(-1418.615 398.671)" fill="#7dd2d3"/>
          <path id="Path_143206" data-name="Path 143206" d="M1979.5,8.837a4.418,4.418,0,1,1,4.418-4.418,4.424,4.424,0,0,1-4.418,4.418m0-8.033a3.615,3.615,0,1,0,3.615,3.615A3.619,3.619,0,0,0,1979.5.8" transform="translate(-1975.078 401.859)" fill="#7dd2d3"/>
          <path id="Path_143207" data-name="Path 143207" d="M830.5,294a4.418,4.418,0,1,1,4.418-4.418A4.424,4.424,0,0,1,830.5,294m0-8.033a3.615,3.615,0,1,0,3.615,3.615,3.619,3.619,0,0,0-3.615-3.615" transform="translate(-364.559 2.148)" fill="#7dd2d3"/>
          <path id="Path_143208" data-name="Path 143208" d="M547.5,238.747a4.418,4.418,0,1,1,4.418-4.418,4.423,4.423,0,0,1-4.418,4.418m0-8.033a3.615,3.615,0,1,0,3.615,3.615,3.619,3.619,0,0,0-3.615-3.615" transform="translate(32.113 79.601)" fill="#7dd2d3"/>
          <path id="Path_143209" data-name="Path 143209" d="M200.218,37.18H0v-.8H199.886l24.1-24.1H381.248v.8H224.321Z" transform="translate(281.739 406.585)" fill="#7dd2d3"/>
          <path id="Path_143210" data-name="Path 143210" d="M390.753,170.256H220.078v-.8H390.421l44.786-44.786H624.726l33.339,33.339h198.66v.8H657.732L624.393,125.47H435.539Z" transform="translate(-142.957 190.364)" fill="#7dd2d3"/>
          <path id="Path_143211" data-name="Path 143211" d="M532.979,272.572H421.55l-48.6-48.6H220.078v-.8h153.2l48.6,48.6h111.1Z" transform="translate(180.788 48.484)" fill="#7dd2d3"/>
          <path id="Path_143212" data-name="Path 143212" d="M809.458,69.338h-94.38v-.8h94.047L865.94,11.72h196.181v.8H866.273Z" transform="translate(-547.181 336.649)" fill="#7dd2d3"/>
          <rect id="Rectangle_18803" data-name="Rectangle 18803" width="125.28" height="0.803" transform="translate(519.792 380.86)" fill="#7dd2d3"/>
          <path id="Path_143213" data-name="Path 143213" d="M428.545,325.785H338.806L286.991,273.97H220.078v-.8h67.245l51.815,51.815h89.406Z" transform="translate(285.223 -24.813)" fill="#7dd2d3"/>
          <path id="Path_143214" data-name="Path 143214" d="M613.313,414.605H538.034L481.4,357.97H362.435L329,391.409H220.078v-.8H328.664L362.1,357.167H481.731L538.367,413.8h74.946Z" transform="translate(100.455 -147.373)" fill="#7dd2d3"/>
          <path id="Path_143215" data-name="Path 143215" d="M927.578,251.693h-80.5v-.8h80.168l29.724-29.724H1164.4v.8H957.3Z" transform="translate(-702.477 70.166)" fill="#7dd2d3"/>
          <path id="Path_143216" data-name="Path 143216" d="M349.18,544.685h-129.1v-.8h128.77l27.715-27.715h265.67v.8H376.9Z" transform="translate(71.534 -341.318)" fill="#7dd2d3"/>
          <rect id="Rectangle_18804" data-name="Rectangle 18804" width="79.932" height="0.803" transform="translate(633.835 209.793)" fill="#7dd2d3"/>
          <path id="Path_143217" data-name="Path 143217" d="M559.428,672.315H332.379l-18.931-18.932H274.105v-.8H313.78l18.931,18.931H559.1l17.863-17.863.568.568Z" transform="translate(-5.461 -523.742)" fill="#7dd2d3"/>
          <path id="Path_143218" data-name="Path 143218" d="M922.939,549.379l-.568-.568,35.5-35.5h132.832l18.245-18.245.568.568-18.48,18.48H958.208Z" transform="translate(-677.842 -337.535)" fill="#7dd2d3"/>
          <path id="Path_143219" data-name="Path 143219" d="M1478.164,31.8H1374.078V31h103.754l21-21h117.052v.8h-116.72Z" transform="translate(-1365.642 374.877)" fill="#7dd2d3"/>
          <path id="Path_143220" data-name="Path 143220" d="M655.345,274.13H595.731l-32.653-32.653.568-.568,32.418,32.418h59.281Z" transform="translate(-79.35 39.799)" fill="#7dd2d3"/>
          <rect id="Rectangle_18805" data-name="Rectangle 18805" width="44.37" height="0.803" transform="translate(669.397 239.465)" fill="#7dd2d3"/>
          <path id="Path_143221" data-name="Path 143221" d="M307.289,735.965H220.078v-.8h86.878L340.614,701.5H416.7v.8H340.946Z" transform="translate(177.072 -607.043)" fill="#7dd2d3"/>
          <path id="Path_143222" data-name="Path 143222" d="M851.979,66.978l-.568-.568L875.426,42.4h94.96v.8H875.758Z" transform="translate(-510.206 326.688)" fill="#7dd2d3"/>
        </g>
        <g id="Group_90114" data-name="Group 90114" transform="translate(23 0)">
          <g id="Group_90113" data-name="Group 90113" transform="translate(0 10.429)" opacity="0.15">
            <g id="Group_90112" data-name="Group 90112">
              <g id="Group_90111" data-name="Group 90111" clip-path="url(#clip-path-2)">
                <path id="Path_143223" data-name="Path 143223" d="M1306.111,435.649a4.017,4.017,0,1,0-4.017,4.017,4.017,4.017,0,0,0,4.017-4.017" transform="translate(-981.561 -268.688)" fill="#7dd2d3"/>
                <path id="Path_143224" data-name="Path 143224" d="M327.111,175.434a4.017,4.017,0,1,0-4.017,4.017,4.017,4.017,0,0,0,4.017-4.017" transform="translate(390.674 -112.993)" fill="#7dd2d3"/>
                <path id="Path_143225" data-name="Path 143225" d="M326.111,92.263a4.017,4.017,0,1,0-4.017,4.017,4.017,4.017,0,0,0,4.017-4.017" transform="translate(392.076 -63.23)" fill="#7dd2d3"/>
                <path id="Path_143226" data-name="Path 143226" d="M1276.268,33.256a4.017,4.017,0,1,0-4.016,4.017,4.017,4.017,0,0,0,4.016-4.017" transform="translate(-939.731 -27.924)" fill="#7dd2d3"/>
                <path id="Path_143227" data-name="Path 143227" d="M1744.111,242.149a4.017,4.017,0,1,0-4.017,4.017,4.017,4.017,0,0,0,4.017-4.017" transform="translate(-1595.492 -152.911)" fill="#7dd2d3"/>
                <path id="Path_143228" data-name="Path 143228" d="M1912.111,145.649a4.017,4.017,0,1,0-4.017,4.017,4.017,4.017,0,0,0,4.017-4.017" transform="translate(-1830.973 -95.172)" fill="#7dd2d3"/>
                <path id="Path_143229" data-name="Path 143229" d="M1481.111,83.262a4.017,4.017,0,1,0-4.017,4.017,4.017,4.017,0,0,0,4.017-4.017" transform="translate(-1226.853 -57.844)" fill="#7dd2d3"/>
                <path id="Path_143230" data-name="Path 143230" d="M846.111,423.149a4.017,4.017,0,1,0-4.017,4.017,4.017,4.017,0,0,0,4.017-4.017" transform="translate(-336.793 -261.209)" fill="#7dd2d3"/>
                <path id="Path_143231" data-name="Path 143231" d="M811.111,286.28a4.017,4.017,0,1,0-4.017,4.017,4.017,4.017,0,0,0,4.017-4.017" transform="translate(-287.734 -179.316)" fill="#7dd2d3"/>
                <path id="Path_143232" data-name="Path 143232" d="M821.111,738.418a4.017,4.017,0,1,0-4.017,4.017,4.017,4.017,0,0,0,4.017-4.017" transform="translate(-301.751 -449.844)" fill="#7dd2d3"/>
                <path id="Path_143233" data-name="Path 143233" d="M526.111,519.149a4.017,4.017,0,1,0-4.017,4.017,4.017,4.017,0,0,0,4.017-4.017" transform="translate(111.741 -318.648)" fill="#7dd2d3"/>
                <path id="Path_143234" data-name="Path 143234" d="M328.575,823.211a4.017,4.017,0,1,0-4.017,4.017,4.017,4.017,0,0,0,4.017-4.017" transform="translate(388.622 -500.578)" fill="#7dd2d3"/>
                <path id="Path_143235" data-name="Path 143235" d="M326.611,607.148a4.017,4.017,0,1,0-4.017,4.017,4.017,4.017,0,0,0,4.017-4.017" transform="translate(391.375 -371.301)" fill="#7dd2d3"/>
                <path id="Path_143236" data-name="Path 143236" d="M261.71,904.412a4.017,4.017,0,1,0-4.017,4.017,4.017,4.017,0,0,0,4.017-4.017" transform="translate(482.344 -549.163)" fill="#7dd2d3"/>
                <path id="Path_143237" data-name="Path 143237" d="M331.111,445.28a4.017,4.017,0,1,0-4.017,4.017,4.017,4.017,0,0,0,4.017-4.017" transform="translate(385.067 -274.45)" fill="#7dd2d3"/>
                <path id="Path_143238" data-name="Path 143238" d="M327.111,378.814a4.017,4.017,0,1,0-4.017,4.017,4.017,4.017,0,0,0,4.017-4.017" transform="translate(390.674 -234.682)" fill="#7dd2d3"/>
                <path id="Path_143239" data-name="Path 143239" d="M1022.925,898.4a4.418,4.418,0,1,0,4.419,4.418,4.424,4.424,0,0,0-4.419-4.418m0,8.033a3.615,3.615,0,1,1,3.615-3.615,3.619,3.619,0,0,1-3.615,3.615" transform="translate(-590.498 -547.966)" fill="#7dd2d3"/>
                <path id="Path_143240" data-name="Path 143240" d="M1383.5,532.131a4.418,4.418,0,1,0,4.418,4.418,4.424,4.424,0,0,0-4.418-4.418m0,8.033a3.615,3.615,0,1,1,3.615-3.615,3.619,3.619,0,0,1-3.615,3.615" transform="translate(-1095.9 -328.819)" fill="#7dd2d3"/>
                <path id="Path_143241" data-name="Path 143241" d="M1111.5,360.131a4.418,4.418,0,1,0,4.418,4.418,4.424,4.424,0,0,0-4.418-4.418m0,8.033a3.615,3.615,0,1,1,3.615-3.615,3.619,3.619,0,0,1-3.615,3.615" transform="translate(-714.645 -225.907)" fill="#7dd2d3"/>
                <path id="Path_143242" data-name="Path 143242" d="M442.96,440.263a4.418,4.418,0,1,0,4.418,4.418,4.424,4.424,0,0,0-4.418-4.418m0,8.033a3.615,3.615,0,1,1,3.615-3.615,3.619,3.619,0,0,1-3.615,3.615" transform="translate(222.421 -273.852)" fill="#7dd2d3"/>
                <path id="Path_143243" data-name="Path 143243" d="M313,514.132a4.418,4.418,0,1,0,4.418,4.418A4.424,4.424,0,0,0,313,514.132m0,8.033a3.615,3.615,0,1,1,3.615-3.615A3.619,3.619,0,0,1,313,522.165" transform="translate(404.588 -318.05)" fill="#7dd2d3"/>
                <path id="Path_143244" data-name="Path 143244" d="M1035.5,88.246a4.418,4.418,0,1,0,4.418,4.418,4.424,4.424,0,0,0-4.418-4.418m0,8.033a3.615,3.615,0,1,1,3.615-3.615,3.619,3.619,0,0,1-3.615,3.615" transform="translate(-608.118 -63.23)" fill="#7dd2d3"/>
                <path id="Path_143245" data-name="Path 143245" d="M1691.5,28.24a4.418,4.418,0,1,0,4.418,4.418,4.424,4.424,0,0,0-4.418-4.418m0,8.033a3.615,3.615,0,1,1,3.615-3.615,3.619,3.619,0,0,1-3.615,3.615" transform="translate(-1527.614 -27.326)" fill="#7dd2d3"/>
                <path id="Path_143246" data-name="Path 143246" d="M2088.5,25.965a4.418,4.418,0,1,0,4.418,4.418,4.424,4.424,0,0,0-4.418-4.418m0,8.033a3.615,3.615,0,1,1,3.615-3.615A3.619,3.619,0,0,1,2088.5,34" transform="translate(-2084.077 -25.965)" fill="#7dd2d3"/>
                <path id="Path_143247" data-name="Path 143247" d="M939.5,311.131a4.418,4.418,0,1,0,4.418,4.418,4.424,4.424,0,0,0-4.418-4.418m0,8.033a3.615,3.615,0,1,1,3.615-3.615,3.619,3.619,0,0,1-3.615,3.615" transform="translate(-473.558 -196.588)" fill="#7dd2d3"/>
                <path id="Path_143248" data-name="Path 143248" d="M567.5,200.263a4.418,4.418,0,1,0,4.418,4.418,4.423,4.423,0,0,0-4.418-4.418m0,8.033a3.615,3.615,0,1,1,3.615-3.615A3.619,3.619,0,0,1,567.5,208.3" transform="translate(47.863 -130.253)" fill="#7dd2d3"/>
                <path id="Path_143249" data-name="Path 143249" d="M312.5,290.211a4.418,4.418,0,1,0,4.418,4.418,4.424,4.424,0,0,0-4.418-4.418m0,8.033a3.615,3.615,0,1,1,3.615-3.615,3.619,3.619,0,0,1-3.615,3.615" transform="translate(405.289 -184.071)" fill="#7dd2d3"/>
                <path id="Path_143250" data-name="Path 143250" d="M312.5,238.131a4.418,4.418,0,1,0,4.418,4.418,4.424,4.424,0,0,0-4.418-4.418m0,8.033a3.615,3.615,0,1,1,3.615-3.615,3.619,3.619,0,0,1-3.615,3.615" transform="translate(405.289 -152.91)" fill="#7dd2d3"/>
                <path id="Path_143251" data-name="Path 143251" d="M529.3,38.24H329.078v.8H528.964l24.1,24.1H710.326v-.8H553.4Z" transform="translate(3.442 -33.309)" fill="#7dd2d3"/>
                <path id="Path_143252" data-name="Path 143252" d="M499.753,150.631H329.078v.8H499.421l44.786,44.786H733.726l33.339-33.339h198.66v-.8H766.732l-33.339,33.339H544.539Z" transform="translate(-251.956 -100.557)" fill="#7dd2d3"/>
                <path id="Path_143253" data-name="Path 143253" d="M641.979,249.131H530.55l-48.6,48.6H329.078v.8h153.2l48.6-48.6h111.1Z" transform="translate(71.789 -159.492)" fill="#7dd2d3"/>
                <path id="Path_143254" data-name="Path 143254" d="M918.458,37.685h-94.38v.8h94.047L974.94,95.3h196.181v-.8H975.273Z" transform="translate(-656.179 -32.977)" fill="#7dd2d3"/>
                <rect id="Rectangle_18806" data-name="Rectangle 18806" width="125.28" height="0.803" transform="translate(431.395 29.033)" fill="#7dd2d3"/>
                <path id="Path_143255" data-name="Path 143255" d="M537.545,299.131H447.806l-51.815,51.815H329.078v.8h67.245l51.815-51.815h89.406Z" transform="translate(176.224 -189.409)" fill="#7dd2d3"/>
                <path id="Path_143256" data-name="Path 143256" d="M722.313,383.131H647.034L590.4,439.767H471.436L438,406.328H329.078v.8H437.664L471.1,440.57H590.732l56.635-56.636h74.946Z" transform="translate(-8.544 -239.668)" fill="#7dd2d3"/>
                <path id="Path_143257" data-name="Path 143257" d="M1036.578,247.131h-80.5v.8h80.168l29.724,29.724H1273.4v-.8H1066.3Z" transform="translate(-811.476 -158.295)" fill="#7dd2d3"/>
                <path id="Path_143258" data-name="Path 143258" d="M458.18,542.131h-129.1v.8h128.77l27.715,27.715h265.67v-.8H485.9Z" transform="translate(-37.465 -334.803)" fill="#7dd2d3"/>
                <rect id="Rectangle_18807" data-name="Rectangle 18807" width="79.932" height="0.803" transform="translate(633.836 200.098)" fill="#7dd2d3"/>
                <path id="Path_143259" data-name="Path 143259" d="M549,861.263H321.95l-18.931,18.932H263.676v.8h39.675l18.932-18.931H548.667l17.863,17.863.568-.568Z" transform="translate(172.94 -525.749)" fill="#7dd2d3"/>
                <path id="Path_143260" data-name="Path 143260" d="M1587.164,35.965H1483.078v.8h103.754l21,21h117.052v-.8h-116.72Z" transform="translate(-1474.641 -31.949)" fill="#7dd2d3"/>
                <path id="Path_143261" data-name="Path 143261" d="M676.344,210.263H616.731l-32.653,32.653.568.568,32.418-32.418h59.281Z" transform="translate(-65.002 -136.236)" fill="#7dd2d3"/>
                <rect id="Rectangle_18808" data-name="Rectangle 18808" width="44.37" height="0.803" transform="translate(669.398 170.428)" fill="#7dd2d3"/>
                <path id="Path_143262" data-name="Path 143262" d="M416.289,743.4H329.078v.8h86.878l33.657,33.658H525.7v-.8H449.946Z" transform="translate(188.073 -455.228)" fill="#7dd2d3"/>
              </g>
            </g>
          </g>
          <path id="Path_143263" data-name="Path 143263" d="M1385.624,489.786a4.017,4.017,0,1,0-4.017,4.017,4.017,4.017,0,0,0,4.017-4.017" transform="translate(-1093.012 -290.65)" fill="#7dd2d3"/>
          <path id="Path_143264" data-name="Path 143264" d="M1197.111,409.683a4.017,4.017,0,1,0-4.017,4.017,4.017,4.017,0,0,0,4.017-4.017" transform="translate(-828.779 -242.722)" fill="#7dd2d3"/>
          <path id="Path_143265" data-name="Path 143265" d="M947.189,7.291a4.017,4.017,0,1,0-4.017,4.017,4.017,4.017,0,0,0,4.017-4.017" transform="translate(-478.471 -1.959)" fill="#7dd2d3"/>
          <path id="Path_143266" data-name="Path 143266" d="M849.444,96.613a4.017,4.017,0,1,0-4.017,4.017,4.017,4.017,0,0,0,4.017-4.017" transform="translate(-341.465 -55.403)" fill="#7dd2d3"/>
          <path id="Path_143267" data-name="Path 143267" d="M1635.111,216.183a4.017,4.017,0,1,0-4.017,4.017,4.017,4.017,0,0,0,4.017-4.017" transform="translate(-1442.71 -126.945)" fill="#7dd2d3"/>
          <path id="Path_143268" data-name="Path 143268" d="M1803.111,119.683a4.017,4.017,0,1,0-4.017,4.017,4.017,4.017,0,0,0,4.017-4.017" transform="translate(-1678.191 -69.206)" fill="#7dd2d3"/>
          <path id="Path_143269" data-name="Path 143269" d="M1372.111,57.3a4.017,4.017,0,1,0-4.017,4.017,4.017,4.017,0,0,0,4.017-4.017" transform="translate(-1074.071 -31.879)" fill="#7dd2d3"/>
          <path id="Path_143270" data-name="Path 143270" d="M737.111,397.183a4.017,4.017,0,1,0-4.017,4.017,4.017,4.017,0,0,0,4.017-4.017" transform="translate(-184.011 -235.243)" fill="#7dd2d3"/>
          <path id="Path_143271" data-name="Path 143271" d="M790.818,317.148a4.017,4.017,0,1,0-4.017,4.017,4.017,4.017,0,0,0,4.017-4.017" transform="translate(-259.29 -187.356)" fill="#7dd2d3"/>
          <path id="Path_143272" data-name="Path 143272" d="M272.846,692.363a4.017,4.017,0,1,0-4.017,4.017,4.016,4.016,0,0,0,4.017-4.017" transform="translate(466.736 -411.858)" fill="#7dd2d3"/>
          <path id="Path_143273" data-name="Path 143273" d="M707.611,696.522a4.017,4.017,0,1,0-4.017,4.017,4.017,4.017,0,0,0,4.017-4.017" transform="translate(-142.662 -414.346)" fill="#7dd2d3"/>
          <path id="Path_143274" data-name="Path 143274" d="M417.111,493.183a4.017,4.017,0,1,0-4.017,4.017,4.017,4.017,0,0,0,4.017-4.017" transform="translate(264.524 -292.683)" fill="#7dd2d3"/>
          <path id="Path_143275" data-name="Path 143275" d="M909.5,625.582A4.418,4.418,0,1,0,913.915,630a4.424,4.424,0,0,0-4.418-4.418m0,8.033A3.615,3.615,0,1,1,913.111,630a3.619,3.619,0,0,1-3.615,3.615" transform="translate(-431.508 -374.304)" fill="#7dd2d3"/>
          <path id="Path_143276" data-name="Path 143276" d="M1032.925,689.712a4.418,4.418,0,1,0,4.418,4.418,4.424,4.424,0,0,0-4.418-4.418m0,8.033a3.615,3.615,0,1,1,3.615-3.615,3.619,3.619,0,0,1-3.615,3.615" transform="translate(-604.515 -412.675)" fill="#7dd2d3"/>
          <path id="Path_143277" data-name="Path 143277" d="M1274.5,506.167a4.418,4.418,0,1,0,4.418,4.418,4.424,4.424,0,0,0-4.418-4.418m0,8.033a3.615,3.615,0,1,1,3.615-3.615,3.619,3.619,0,0,1-3.615,3.615" transform="translate(-943.118 -302.855)" fill="#7dd2d3"/>
          <path id="Path_143278" data-name="Path 143278" d="M1002.5,334.167a4.418,4.418,0,1,0,4.418,4.418,4.424,4.424,0,0,0-4.418-4.418m0,8.033a3.615,3.615,0,1,1,3.615-3.615,3.619,3.619,0,0,1-3.615,3.615" transform="translate(-561.863 -199.942)" fill="#7dd2d3"/>
          <path id="Path_143279" data-name="Path 143279" d="M333.96,414.3a4.418,4.418,0,1,0,4.418,4.418,4.424,4.424,0,0,0-4.418-4.418m0,8.033a3.615,3.615,0,1,1,3.615-3.615,3.619,3.619,0,0,1-3.615,3.615" transform="translate(375.203 -247.886)" fill="#7dd2d3"/>
          <path id="Path_143280" data-name="Path 143280" d="M706.418,62.28a4.418,4.418,0,1,0,4.418,4.418,4.424,4.424,0,0,0-4.418-4.418m0,8.033a3.615,3.615,0,1,1,3.615-3.615,3.619,3.619,0,0,1-3.615,3.615" transform="translate(-146.86 -37.264)" fill="#7dd2d3"/>
          <path id="Path_143281" data-name="Path 143281" d="M1146.966,24.706a4.418,4.418,0,1,0,4.418,4.418,4.424,4.424,0,0,0-4.418-4.418m0,8.033a3.615,3.615,0,1,1,3.615-3.615,3.619,3.619,0,0,1-3.615,3.615" transform="translate(-764.361 -14.782)" fill="#7dd2d3"/>
          <path id="Path_143282" data-name="Path 143282" d="M1582.5,2.274a4.418,4.418,0,1,0,4.418,4.418,4.424,4.424,0,0,0-4.418-4.418m0,8.033a3.615,3.615,0,1,1,3.615-3.615,3.619,3.619,0,0,1-3.615,3.615" transform="translate(-1374.832 -1.361)" fill="#7dd2d3"/>
          <path id="Path_143283" data-name="Path 143283" d="M1979.5,0a4.418,4.418,0,1,0,4.418,4.418A4.424,4.424,0,0,0,1979.5,0m0,8.033a3.615,3.615,0,1,1,3.615-3.615,3.619,3.619,0,0,1-3.615,3.615" transform="translate(-1931.295 0)" fill="#7dd2d3"/>
          <path id="Path_143284" data-name="Path 143284" d="M830.5,285.167a4.418,4.418,0,1,0,4.418,4.418,4.424,4.424,0,0,0-4.418-4.418m0,8.033a3.615,3.615,0,1,1,3.615-3.615A3.619,3.619,0,0,1,830.5,293.2" transform="translate(-320.776 -170.624)" fill="#7dd2d3"/>
          <path id="Path_143285" data-name="Path 143285" d="M547.5,229.91a4.418,4.418,0,1,0,4.418,4.418,4.423,4.423,0,0,0-4.418-4.418m0,8.033a3.615,3.615,0,1,1,3.615-3.615,3.619,3.619,0,0,1-3.615,3.615" transform="translate(75.897 -137.562)" fill="#7dd2d3"/>
          <path id="Path_143286" data-name="Path 143286" d="M200.218,12.274H0v.8H199.886l24.1,24.1H381.248v-.8H224.321Z" transform="translate(464.701 -7.344)" fill="#7dd2d3"/>
          <path id="Path_143287" data-name="Path 143287" d="M390.753,124.667H220.078v.8H390.421l44.786,44.786H624.726l33.339-33.339h198.66v-.8H657.732l-33.339,33.339H435.539Z" transform="translate(-99.174 -74.592)" fill="#7dd2d3"/>
          <path id="Path_143288" data-name="Path 143288" d="M532.979,223.167H421.55l-48.6,48.6H220.078v.8h153.2l48.6-48.6h111.1Z" transform="translate(224.572 -133.527)" fill="#7dd2d3"/>
          <path id="Path_143289" data-name="Path 143289" d="M809.458,11.72h-94.38v.8h94.047L865.94,69.338h196.181v-.8H866.273Z" transform="translate(-503.398 -7.013)" fill="#7dd2d3"/>
          <rect id="Rectangle_18810" data-name="Rectangle 18810" width="125.28" height="0.803" transform="translate(563.575 29.032)" fill="#7dd2d3"/>
          <path id="Path_143290" data-name="Path 143290" d="M428.545,273.167H338.806l-51.815,51.815H220.078v.8h67.245l51.815-51.815h89.406Z" transform="translate(329.006 -163.444)" fill="#7dd2d3"/>
          <path id="Path_143291" data-name="Path 143291" d="M613.313,357.166H538.034L481.4,413.8H362.435L329,380.363H220.078v.8H328.664L362.1,414.605H481.731l56.635-56.636h74.946Z" transform="translate(144.238 -213.703)" fill="#7dd2d3"/>
          <path id="Path_143292" data-name="Path 143292" d="M927.578,221.166h-80.5v.8h80.168l29.724,29.724H1164.4v-.8H957.3Z" transform="translate(-658.694 -132.331)" fill="#7dd2d3"/>
          <path id="Path_143293" data-name="Path 143293" d="M349.18,516.166h-129.1v.8h128.77l27.715,27.715h265.67v-.8H376.9Z" transform="translate(115.317 -308.838)" fill="#7dd2d3"/>
          <rect id="Rectangle_18811" data-name="Rectangle 18811" width="79.932" height="0.803" transform="translate(677.618 200.099)" fill="#7dd2d3"/>
          <path id="Path_143294" data-name="Path 143294" d="M559.428,652.581H332.379l-18.931,18.932H274.105v.8H313.78l18.931-18.931H559.1l17.863,17.863.568-.568Z" transform="translate(158.322 -390.458)" fill="#7dd2d3"/>
          <path id="Path_143295" data-name="Path 143295" d="M922.939,495.062l-.568.568,35.5,35.5h132.832l18.245,18.245.568-.568-18.48-18.48H958.208Z" transform="translate(-634.059 -296.21)" fill="#7dd2d3"/>
          <path id="Path_143296" data-name="Path 143296" d="M1478.164,10H1374.078v.8h103.754l21,21h117.052V31h-116.72Z" transform="translate(-1321.859 -5.983)" fill="#7dd2d3"/>
          <path id="Path_143297" data-name="Path 143297" d="M655.345,240.91H595.731l-32.653,32.653.568.568,32.418-32.418h59.281Z" transform="translate(-35.567 -144.143)" fill="#7dd2d3"/>
          <rect id="Rectangle_18812" data-name="Rectangle 18812" width="44.37" height="0.803" transform="translate(713.18 170.427)" fill="#7dd2d3"/>
          <path id="Path_143298" data-name="Path 143298" d="M307.289,701.5H220.078v.8h86.878l33.657,33.657H416.7v-.8H340.946Z" transform="translate(340.855 -419.731)" fill="#7dd2d3"/>
          <path id="Path_143299" data-name="Path 143299" d="M851.979,42.4l-.568.568,24.014,24.014h94.96v-.8H875.758Z" transform="translate(-466.423 -25.367)" fill="#7dd2d3"/>
        </g>
      </g>
    </g>
  </g>
</svg>
